<mxfile host="app.diagrams.net" modified="2020-12-14T23:04:51.300Z" agent="5.0 (Windows NT 10.0; Win64; x64) AppleWebKit/537.36 (KHTML, like Gecko) Chrome/85.0.4183.121 Safari/537.36 OPR/71.0.3770.456" etag="CmmLh6LUr-OKgPdH3d7E" version="14.0.1" type="github">
  <diagram id="ccfgcRXVULgk-GNFtkvl" name="Page-1">
    <mxGraphModel dx="2208" dy="795" grid="1" gridSize="10" guides="1" tooltips="1" connect="1" arrows="1" fold="1" page="1" pageScale="1" pageWidth="827" pageHeight="1169" math="0" shadow="0">
      <root>
        <mxCell id="0" />
        <mxCell id="1" parent="0" />
        <mxCell id="t8-AK38QEtl_F5lhsWh6-1" value="Product" style="swimlane;fontStyle=1;align=center;verticalAlign=top;childLayout=stackLayout;horizontal=1;startSize=26;horizontalStack=0;resizeParent=1;resizeParentMax=0;resizeLast=0;collapsible=1;marginBottom=0;" parent="1" vertex="1">
          <mxGeometry x="370" y="240" width="160" height="140" as="geometry" />
        </mxCell>
        <mxCell id="t8-AK38QEtl_F5lhsWh6-2" value="+ ID&#xa;+ Name&#xa;+ Description&#xa;+ Filters&#xa;+ Category" style="text;strokeColor=none;fillColor=none;align=left;verticalAlign=top;spacingLeft=4;spacingRight=4;overflow=hidden;rotatable=0;points=[[0,0.5],[1,0.5]];portConstraint=eastwest;" parent="t8-AK38QEtl_F5lhsWh6-1" vertex="1">
          <mxGeometry y="26" width="160" height="84" as="geometry" />
        </mxCell>
        <mxCell id="t8-AK38QEtl_F5lhsWh6-3" value="" style="line;strokeWidth=1;fillColor=none;align=left;verticalAlign=middle;spacingTop=-1;spacingLeft=3;spacingRight=3;rotatable=0;labelPosition=right;points=[];portConstraint=eastwest;" parent="t8-AK38QEtl_F5lhsWh6-1" vertex="1">
          <mxGeometry y="110" width="160" height="8" as="geometry" />
        </mxCell>
        <mxCell id="t8-AK38QEtl_F5lhsWh6-4" value=" " style="text;strokeColor=none;fillColor=none;align=left;verticalAlign=top;spacingLeft=4;spacingRight=4;overflow=hidden;rotatable=0;points=[[0,0.5],[1,0.5]];portConstraint=eastwest;" parent="t8-AK38QEtl_F5lhsWh6-1" vertex="1">
          <mxGeometry y="118" width="160" height="22" as="geometry" />
        </mxCell>
        <mxCell id="xCEp696OU6FZXGWBjgtu-13" value="Category" style="swimlane;fontStyle=1;align=center;verticalAlign=top;childLayout=stackLayout;horizontal=1;startSize=26;horizontalStack=0;resizeParent=1;resizeParentMax=0;resizeLast=0;collapsible=1;marginBottom=0;" parent="1" vertex="1">
          <mxGeometry x="370" y="80" width="190" height="114" as="geometry" />
        </mxCell>
        <mxCell id="xCEp696OU6FZXGWBjgtu-14" value="+ ID&#xa;+ Name&#xa;+ MainCategory" style="text;strokeColor=none;fillColor=none;align=left;verticalAlign=top;spacingLeft=4;spacingRight=4;overflow=hidden;rotatable=0;points=[[0,0.5],[1,0.5]];portConstraint=eastwest;" parent="xCEp696OU6FZXGWBjgtu-13" vertex="1">
          <mxGeometry y="26" width="190" height="54" as="geometry" />
        </mxCell>
        <mxCell id="xCEp696OU6FZXGWBjgtu-15" value="" style="line;strokeWidth=1;fillColor=none;align=left;verticalAlign=middle;spacingTop=-1;spacingLeft=3;spacingRight=3;rotatable=0;labelPosition=right;points=[];portConstraint=eastwest;" parent="xCEp696OU6FZXGWBjgtu-13" vertex="1">
          <mxGeometry y="80" width="190" height="8" as="geometry" />
        </mxCell>
        <mxCell id="xCEp696OU6FZXGWBjgtu-16" value=" " style="text;strokeColor=none;fillColor=none;align=left;verticalAlign=top;spacingLeft=4;spacingRight=4;overflow=hidden;rotatable=0;points=[[0,0.5],[1,0.5]];portConstraint=eastwest;" parent="xCEp696OU6FZXGWBjgtu-13" vertex="1">
          <mxGeometry y="88" width="190" height="26" as="geometry" />
        </mxCell>
        <mxCell id="Ko4EwIO6dEaTH60689tN-1" value="StoreDbContext" style="swimlane;fontStyle=1;align=center;verticalAlign=top;childLayout=stackLayout;horizontal=1;startSize=26;horizontalStack=0;resizeParent=1;resizeParentMax=0;resizeLast=0;collapsible=1;marginBottom=0;" parent="1" vertex="1">
          <mxGeometry x="640" y="80" width="160" height="144" as="geometry" />
        </mxCell>
        <mxCell id="Ko4EwIO6dEaTH60689tN-2" value="+ ProductContext&#xa;+ CategoryContext&#xa;+ OrderContext" style="text;strokeColor=none;fillColor=none;align=left;verticalAlign=top;spacingLeft=4;spacingRight=4;overflow=hidden;rotatable=0;points=[[0,0.5],[1,0.5]];portConstraint=eastwest;" parent="Ko4EwIO6dEaTH60689tN-1" vertex="1">
          <mxGeometry y="26" width="160" height="84" as="geometry" />
        </mxCell>
        <mxCell id="Ko4EwIO6dEaTH60689tN-3" value="" style="line;strokeWidth=1;fillColor=none;align=left;verticalAlign=middle;spacingTop=-1;spacingLeft=3;spacingRight=3;rotatable=0;labelPosition=right;points=[];portConstraint=eastwest;" parent="Ko4EwIO6dEaTH60689tN-1" vertex="1">
          <mxGeometry y="110" width="160" height="8" as="geometry" />
        </mxCell>
        <mxCell id="Ko4EwIO6dEaTH60689tN-4" value="+ StoreDbContext" style="text;strokeColor=none;fillColor=none;align=left;verticalAlign=top;spacingLeft=4;spacingRight=4;overflow=hidden;rotatable=0;points=[[0,0.5],[1,0.5]];portConstraint=eastwest;" parent="Ko4EwIO6dEaTH60689tN-1" vertex="1">
          <mxGeometry y="118" width="160" height="26" as="geometry" />
        </mxCell>
        <mxCell id="Ko4EwIO6dEaTH60689tN-9" value="User" style="swimlane;fontStyle=1;align=center;verticalAlign=top;childLayout=stackLayout;horizontal=1;startSize=26;horizontalStack=0;resizeParent=1;resizeParentMax=0;resizeLast=0;collapsible=1;marginBottom=0;" parent="1" vertex="1">
          <mxGeometry x="1219" y="260" width="160" height="130" as="geometry" />
        </mxCell>
        <mxCell id="Ko4EwIO6dEaTH60689tN-10" value="+ ID&#xa;+ Name&#xa;+ Secondname&#xa;+ ThirdName" style="text;strokeColor=none;fillColor=none;align=left;verticalAlign=top;spacingLeft=4;spacingRight=4;overflow=hidden;rotatable=0;points=[[0,0.5],[1,0.5]];portConstraint=eastwest;" parent="Ko4EwIO6dEaTH60689tN-9" vertex="1">
          <mxGeometry y="26" width="160" height="74" as="geometry" />
        </mxCell>
        <mxCell id="Ko4EwIO6dEaTH60689tN-11" value="" style="line;strokeWidth=1;fillColor=none;align=left;verticalAlign=middle;spacingTop=-1;spacingLeft=3;spacingRight=3;rotatable=0;labelPosition=right;points=[];portConstraint=eastwest;" parent="Ko4EwIO6dEaTH60689tN-9" vertex="1">
          <mxGeometry y="100" width="160" height="8" as="geometry" />
        </mxCell>
        <mxCell id="Ko4EwIO6dEaTH60689tN-12" value=" " style="text;strokeColor=none;fillColor=none;align=left;verticalAlign=top;spacingLeft=4;spacingRight=4;overflow=hidden;rotatable=0;points=[[0,0.5],[1,0.5]];portConstraint=eastwest;" parent="Ko4EwIO6dEaTH60689tN-9" vertex="1">
          <mxGeometry y="108" width="160" height="22" as="geometry" />
        </mxCell>
        <mxCell id="Ko4EwIO6dEaTH60689tN-13" value="Client" style="swimlane;fontStyle=1;align=center;verticalAlign=top;childLayout=stackLayout;horizontal=1;startSize=26;horizontalStack=0;resizeParent=1;resizeParentMax=0;resizeLast=0;collapsible=1;marginBottom=0;" parent="1" vertex="1">
          <mxGeometry x="1070" y="443" width="240" height="178" as="geometry" />
        </mxCell>
        <mxCell id="Ko4EwIO6dEaTH60689tN-14" value="+ Status&#xa;+ Cart : JSON" style="text;strokeColor=none;fillColor=none;align=left;verticalAlign=top;spacingLeft=4;spacingRight=4;overflow=hidden;rotatable=0;points=[[0,0.5],[1,0.5]];portConstraint=eastwest;" parent="Ko4EwIO6dEaTH60689tN-13" vertex="1">
          <mxGeometry y="26" width="240" height="64" as="geometry" />
        </mxCell>
        <mxCell id="Ko4EwIO6dEaTH60689tN-15" value="" style="line;strokeWidth=1;fillColor=none;align=left;verticalAlign=middle;spacingTop=-1;spacingLeft=3;spacingRight=3;rotatable=0;labelPosition=right;points=[];portConstraint=eastwest;" parent="Ko4EwIO6dEaTH60689tN-13" vertex="1">
          <mxGeometry y="90" width="240" height="8" as="geometry" />
        </mxCell>
        <mxCell id="Ko4EwIO6dEaTH60689tN-16" value="+ AddProductToCart(Product)&#xa;+ AddProductToCart(int ProductID)&#xa;+ RemoveProductFromCart(Product)&#xa;+ RemoveProductFromCart(int ProductID)" style="text;strokeColor=none;fillColor=none;align=left;verticalAlign=top;spacingLeft=4;spacingRight=4;overflow=hidden;rotatable=0;points=[[0,0.5],[1,0.5]];portConstraint=eastwest;" parent="Ko4EwIO6dEaTH60689tN-13" vertex="1">
          <mxGeometry y="98" width="240" height="80" as="geometry" />
        </mxCell>
        <mxCell id="Ko4EwIO6dEaTH60689tN-17" value="Admin" style="swimlane;fontStyle=1;align=center;verticalAlign=top;childLayout=stackLayout;horizontal=1;startSize=26;horizontalStack=0;resizeParent=1;resizeParentMax=0;resizeLast=0;collapsible=1;marginBottom=0;" parent="1" vertex="1">
          <mxGeometry x="1359" y="443" width="160" height="180" as="geometry" />
        </mxCell>
        <mxCell id="Ko4EwIO6dEaTH60689tN-18" value="+ AdminRole : string" style="text;strokeColor=none;fillColor=none;align=left;verticalAlign=top;spacingLeft=4;spacingRight=4;overflow=hidden;rotatable=0;points=[[0,0.5],[1,0.5]];portConstraint=eastwest;" parent="Ko4EwIO6dEaTH60689tN-17" vertex="1">
          <mxGeometry y="26" width="160" height="26" as="geometry" />
        </mxCell>
        <mxCell id="Ko4EwIO6dEaTH60689tN-19" value="" style="line;strokeWidth=1;fillColor=none;align=left;verticalAlign=middle;spacingTop=-1;spacingLeft=3;spacingRight=3;rotatable=0;labelPosition=right;points=[];portConstraint=eastwest;" parent="Ko4EwIO6dEaTH60689tN-17" vertex="1">
          <mxGeometry y="52" width="160" height="8" as="geometry" />
        </mxCell>
        <mxCell id="Ko4EwIO6dEaTH60689tN-20" value="+ method(type): type" style="text;strokeColor=none;fillColor=none;align=left;verticalAlign=top;spacingLeft=4;spacingRight=4;overflow=hidden;rotatable=0;points=[[0,0.5],[1,0.5]];portConstraint=eastwest;" parent="Ko4EwIO6dEaTH60689tN-17" vertex="1">
          <mxGeometry y="60" width="160" height="120" as="geometry" />
        </mxCell>
        <mxCell id="Ko4EwIO6dEaTH60689tN-21" value="Extends" style="endArrow=block;endSize=16;endFill=0;html=1;edgeStyle=orthogonalEdgeStyle;" parent="1" source="Ko4EwIO6dEaTH60689tN-13" target="Ko4EwIO6dEaTH60689tN-9" edge="1">
          <mxGeometry width="160" relative="1" as="geometry">
            <mxPoint x="819" y="553" as="sourcePoint" />
            <mxPoint x="1299" y="443" as="targetPoint" />
          </mxGeometry>
        </mxCell>
        <mxCell id="Ko4EwIO6dEaTH60689tN-22" value="Extends" style="endArrow=block;endSize=16;endFill=0;html=1;edgeStyle=orthogonalEdgeStyle;" parent="1" source="Ko4EwIO6dEaTH60689tN-17" target="Ko4EwIO6dEaTH60689tN-9" edge="1">
          <mxGeometry width="160" relative="1" as="geometry">
            <mxPoint x="1339" y="443" as="sourcePoint" />
            <mxPoint x="1499" y="443" as="targetPoint" />
          </mxGeometry>
        </mxCell>
        <mxCell id="Ko4EwIO6dEaTH60689tN-31" value="Order" style="swimlane;fontStyle=1;align=center;verticalAlign=top;childLayout=stackLayout;horizontal=1;startSize=26;horizontalStack=0;resizeParent=1;resizeParentMax=0;resizeLast=0;collapsible=1;marginBottom=0;" parent="1" vertex="1">
          <mxGeometry x="370" y="410" width="160" height="178" as="geometry" />
        </mxCell>
        <mxCell id="Ko4EwIO6dEaTH60689tN-32" value="+ ID&#xa;+ Client&#xa;+ Products&#xa;+ Status: OrderStatus&#xa;+ DeliveryType&#xa;+ CreateData&#xa;+ CompleteData" style="text;strokeColor=none;fillColor=none;align=left;verticalAlign=top;spacingLeft=4;spacingRight=4;overflow=hidden;rotatable=0;points=[[0,0.5],[1,0.5]];portConstraint=eastwest;" parent="Ko4EwIO6dEaTH60689tN-31" vertex="1">
          <mxGeometry y="26" width="160" height="114" as="geometry" />
        </mxCell>
        <mxCell id="Ko4EwIO6dEaTH60689tN-33" value="" style="line;strokeWidth=1;fillColor=none;align=left;verticalAlign=middle;spacingTop=-1;spacingLeft=3;spacingRight=3;rotatable=0;labelPosition=right;points=[];portConstraint=eastwest;" parent="Ko4EwIO6dEaTH60689tN-31" vertex="1">
          <mxGeometry y="140" width="160" height="8" as="geometry" />
        </mxCell>
        <mxCell id="Ko4EwIO6dEaTH60689tN-34" value="+ Order" style="text;strokeColor=none;fillColor=none;align=left;verticalAlign=top;spacingLeft=4;spacingRight=4;overflow=hidden;rotatable=0;points=[[0,0.5],[1,0.5]];portConstraint=eastwest;" parent="Ko4EwIO6dEaTH60689tN-31" vertex="1">
          <mxGeometry y="148" width="160" height="30" as="geometry" />
        </mxCell>
        <mxCell id="5tQaKlca7w6gPAvnw7rY-1" value="&lt;p style=&quot;margin: 0px ; margin-top: 4px ; text-align: center ; text-decoration: underline&quot;&gt;&lt;b&gt;Enum:OrderStatus&lt;/b&gt;&lt;/p&gt;&lt;hr&gt;&lt;p style=&quot;margin: 0px ; margin-left: 8px&quot;&gt;Ordered&lt;br&gt;Assembling&lt;/p&gt;&lt;p style=&quot;margin: 0px ; margin-left: 8px&quot;&gt;Delevering&lt;/p&gt;&lt;p style=&quot;margin: 0px ; margin-left: 8px&quot;&gt;Completed&lt;/p&gt;" style="verticalAlign=top;align=left;overflow=fill;fontSize=12;fontFamily=Helvetica;html=1;" parent="1" vertex="1">
          <mxGeometry x="160" y="448" width="160" height="90" as="geometry" />
        </mxCell>
        <mxCell id="5tQaKlca7w6gPAvnw7rY-4" value="OrderManager(Singleton)" style="swimlane;fontStyle=1;align=center;verticalAlign=top;childLayout=stackLayout;horizontal=1;startSize=26;horizontalStack=0;resizeParent=1;resizeParentMax=0;resizeLast=0;collapsible=1;marginBottom=0;" parent="1" vertex="1">
          <mxGeometry x="640" y="410" width="240" height="140" as="geometry" />
        </mxCell>
        <mxCell id="5tQaKlca7w6gPAvnw7rY-5" value="+ readonly Orders (OrderDbContext)" style="text;strokeColor=none;fillColor=none;align=left;verticalAlign=top;spacingLeft=4;spacingRight=4;overflow=hidden;rotatable=0;points=[[0,0.5],[1,0.5]];portConstraint=eastwest;" parent="5tQaKlca7w6gPAvnw7rY-4" vertex="1">
          <mxGeometry y="26" width="240" height="26" as="geometry" />
        </mxCell>
        <mxCell id="5tQaKlca7w6gPAvnw7rY-6" value="" style="line;strokeWidth=1;fillColor=none;align=left;verticalAlign=middle;spacingTop=-1;spacingLeft=3;spacingRight=3;rotatable=0;labelPosition=right;points=[];portConstraint=eastwest;" parent="5tQaKlca7w6gPAvnw7rY-4" vertex="1">
          <mxGeometry y="52" width="240" height="8" as="geometry" />
        </mxCell>
        <mxCell id="5tQaKlca7w6gPAvnw7rY-7" value="+ OrderManager(OrderDbContext)&#xa;+ CreateOrder(Order)&#xa;+ ChangeOrderStatus(Order, newStatus)&#xa;+ CompleteOrder(Order)" style="text;strokeColor=none;fillColor=none;align=left;verticalAlign=top;spacingLeft=4;spacingRight=4;overflow=hidden;rotatable=0;points=[[0,0.5],[1,0.5]];portConstraint=eastwest;" parent="5tQaKlca7w6gPAvnw7rY-4" vertex="1">
          <mxGeometry y="60" width="240" height="80" as="geometry" />
        </mxCell>
        <mxCell id="5tQaKlca7w6gPAvnw7rY-8" value="Use" style="endArrow=open;endSize=12;dashed=1;html=1;edgeStyle=orthogonalEdgeStyle;" parent="1" source="Ko4EwIO6dEaTH60689tN-31" target="5tQaKlca7w6gPAvnw7rY-1" edge="1">
          <mxGeometry width="160" relative="1" as="geometry">
            <mxPoint x="220" y="630" as="sourcePoint" />
            <mxPoint x="380" y="630" as="targetPoint" />
            <Array as="points">
              <mxPoint x="360" y="520" />
              <mxPoint x="360" y="520" />
            </Array>
          </mxGeometry>
        </mxCell>
        <mxCell id="5tQaKlca7w6gPAvnw7rY-9" value="Use" style="endArrow=open;endSize=12;dashed=1;html=1;exitX=0;exitY=0.5;exitDx=0;exitDy=0;entryX=1;entryY=0.5;entryDx=0;entryDy=0;edgeStyle=orthogonalEdgeStyle;" parent="1" source="Ko4EwIO6dEaTH60689tN-2" target="t8-AK38QEtl_F5lhsWh6-2" edge="1">
          <mxGeometry width="160" relative="1" as="geometry">
            <mxPoint x="800" y="330" as="sourcePoint" />
            <mxPoint x="640" y="330" as="targetPoint" />
          </mxGeometry>
        </mxCell>
        <mxCell id="5tQaKlca7w6gPAvnw7rY-10" value="Use" style="endArrow=open;endSize=12;dashed=1;html=1;edgeStyle=orthogonalEdgeStyle;" parent="1" source="Ko4EwIO6dEaTH60689tN-1" target="xCEp696OU6FZXGWBjgtu-13" edge="1">
          <mxGeometry width="160" relative="1" as="geometry">
            <mxPoint x="700" y="130" as="sourcePoint" />
            <mxPoint x="540" y="130" as="targetPoint" />
            <Array as="points">
              <mxPoint x="600" y="120" />
              <mxPoint x="600" y="120" />
            </Array>
          </mxGeometry>
        </mxCell>
        <mxCell id="5tQaKlca7w6gPAvnw7rY-12" value="Use" style="endArrow=open;endSize=12;dashed=1;html=1;entryX=1;entryY=0.5;entryDx=0;entryDy=0;edgeStyle=orthogonalEdgeStyle;" parent="1" source="5tQaKlca7w6gPAvnw7rY-4" target="Ko4EwIO6dEaTH60689tN-32" edge="1">
          <mxGeometry width="160" relative="1" as="geometry">
            <mxPoint x="500" y="620" as="sourcePoint" />
            <mxPoint x="660" y="620" as="targetPoint" />
            <Array as="points">
              <mxPoint x="610" y="493" />
              <mxPoint x="610" y="493" />
            </Array>
          </mxGeometry>
        </mxCell>
        <mxCell id="5tQaKlca7w6gPAvnw7rY-13" value="Use" style="endArrow=open;endSize=12;dashed=1;html=1;edgeStyle=orthogonalEdgeStyle;dashPattern=1 4;" parent="1" source="Ko4EwIO6dEaTH60689tN-31" target="t8-AK38QEtl_F5lhsWh6-1" edge="1">
          <mxGeometry width="160" relative="1" as="geometry">
            <mxPoint x="190" y="360" as="sourcePoint" />
            <mxPoint x="350" y="360" as="targetPoint" />
            <Array as="points">
              <mxPoint x="350" y="493" />
              <mxPoint x="350" y="340" />
            </Array>
          </mxGeometry>
        </mxCell>
        <mxCell id="5tQaKlca7w6gPAvnw7rY-14" value="Use" style="endArrow=open;endSize=12;dashed=1;html=1;edgeStyle=orthogonalEdgeStyle;entryX=0.006;entryY=0.07;entryDx=0;entryDy=0;entryPerimeter=0;" parent="1" source="t8-AK38QEtl_F5lhsWh6-1" target="xCEp696OU6FZXGWBjgtu-13" edge="1">
          <mxGeometry width="160" relative="1" as="geometry">
            <mxPoint x="200" y="180" as="sourcePoint" />
            <mxPoint x="360" y="180" as="targetPoint" />
            <Array as="points">
              <mxPoint x="450" y="390" />
              <mxPoint x="300" y="390" />
              <mxPoint x="300" y="89" />
            </Array>
          </mxGeometry>
        </mxCell>
        <mxCell id="5tQaKlca7w6gPAvnw7rY-19" value="CategoryManager(Singleton)" style="swimlane;fontStyle=1;align=center;verticalAlign=top;childLayout=stackLayout;horizontal=1;startSize=26;horizontalStack=0;resizeParent=1;resizeParentMax=0;resizeLast=0;collapsible=1;marginBottom=0;" parent="1" vertex="1">
          <mxGeometry x="-110" y="82" width="380" height="160" as="geometry" />
        </mxCell>
        <mxCell id="5tQaKlca7w6gPAvnw7rY-20" value=" " style="text;strokeColor=none;fillColor=none;align=left;verticalAlign=top;spacingLeft=4;spacingRight=4;overflow=hidden;rotatable=0;points=[[0,0.5],[1,0.5]];portConstraint=eastwest;" parent="5tQaKlca7w6gPAvnw7rY-19" vertex="1">
          <mxGeometry y="26" width="380" height="26" as="geometry" />
        </mxCell>
        <mxCell id="5tQaKlca7w6gPAvnw7rY-21" value="" style="line;strokeWidth=1;fillColor=none;align=left;verticalAlign=middle;spacingTop=-1;spacingLeft=3;spacingRight=3;rotatable=0;labelPosition=right;points=[];portConstraint=eastwest;" parent="5tQaKlca7w6gPAvnw7rY-19" vertex="1">
          <mxGeometry y="52" width="380" height="8" as="geometry" />
        </mxCell>
        <mxCell id="5tQaKlca7w6gPAvnw7rY-22" value="+ CategoryManager(CategoryDbContext)&#xa;+ AddCategory(Category)&#xa;+ AddSubCategory(Category mainCategory, Category SubCategory)&#xa;+ AddSubCategory(Category mainCategory, int SubCategoryID)&#xa;+ RemoveCategory(Category)&#xa;+ RemoveCategory(ID)" style="text;strokeColor=none;fillColor=none;align=left;verticalAlign=top;spacingLeft=4;spacingRight=4;overflow=hidden;rotatable=0;points=[[0,0.5],[1,0.5]];portConstraint=eastwest;" parent="5tQaKlca7w6gPAvnw7rY-19" vertex="1">
          <mxGeometry y="60" width="380" height="100" as="geometry" />
        </mxCell>
        <mxCell id="5tQaKlca7w6gPAvnw7rY-23" value="Use" style="endArrow=open;endSize=12;dashed=1;html=1;edgeStyle=orthogonalEdgeStyle;dashPattern=1 2;" parent="1" source="5tQaKlca7w6gPAvnw7rY-19" target="xCEp696OU6FZXGWBjgtu-13" edge="1">
          <mxGeometry width="160" relative="1" as="geometry">
            <mxPoint x="30" y="290" as="sourcePoint" />
            <mxPoint x="190" y="290" as="targetPoint" />
            <Array as="points">
              <mxPoint x="340" y="162" />
              <mxPoint x="340" y="162" />
            </Array>
          </mxGeometry>
        </mxCell>
        <mxCell id="LZfnMfzsvYv3BuPkElLu-1" value="ClientManager(Singleton)" style="swimlane;fontStyle=1;align=center;verticalAlign=top;childLayout=stackLayout;horizontal=1;startSize=26;horizontalStack=0;resizeParent=1;resizeParentMax=0;resizeLast=0;collapsible=1;marginBottom=0;" parent="1" vertex="1">
          <mxGeometry x="640" y="720" width="210" height="130" as="geometry" />
        </mxCell>
        <mxCell id="LZfnMfzsvYv3BuPkElLu-2" value=" " style="text;strokeColor=none;fillColor=none;align=left;verticalAlign=top;spacingLeft=4;spacingRight=4;overflow=hidden;rotatable=0;points=[[0,0.5],[1,0.5]];portConstraint=eastwest;" parent="LZfnMfzsvYv3BuPkElLu-1" vertex="1">
          <mxGeometry y="26" width="210" height="26" as="geometry" />
        </mxCell>
        <mxCell id="LZfnMfzsvYv3BuPkElLu-3" value="" style="line;strokeWidth=1;fillColor=none;align=left;verticalAlign=middle;spacingTop=-1;spacingLeft=3;spacingRight=3;rotatable=0;labelPosition=right;points=[];portConstraint=eastwest;" parent="LZfnMfzsvYv3BuPkElLu-1" vertex="1">
          <mxGeometry y="52" width="210" height="8" as="geometry" />
        </mxCell>
        <mxCell id="LZfnMfzsvYv3BuPkElLu-4" value="+ AddClient(Client)&#xa;+ RemoveClient(Client)&#xa;+ RemoveClient(ID)&#xa;+ ChangeStatus(Client, newStatus)" style="text;strokeColor=none;fillColor=none;align=left;verticalAlign=top;spacingLeft=4;spacingRight=4;overflow=hidden;rotatable=0;points=[[0,0.5],[1,0.5]];portConstraint=eastwest;" parent="LZfnMfzsvYv3BuPkElLu-1" vertex="1">
          <mxGeometry y="60" width="210" height="70" as="geometry" />
        </mxCell>
        <mxCell id="di18Ko3ceT_mm56ivmTr-1" value="Use" style="endArrow=open;endSize=12;dashed=1;html=1;edgeStyle=orthogonalEdgeStyle;" edge="1" parent="1" source="5tQaKlca7w6gPAvnw7rY-19" target="Ko4EwIO6dEaTH60689tN-1">
          <mxGeometry width="160" relative="1" as="geometry">
            <mxPoint x="70" y="50" as="sourcePoint" />
            <mxPoint x="230" y="50" as="targetPoint" />
            <Array as="points">
              <mxPoint x="80" y="40" />
              <mxPoint x="720" y="40" />
            </Array>
          </mxGeometry>
        </mxCell>
        <mxCell id="di18Ko3ceT_mm56ivmTr-2" value="Use" style="endArrow=open;endSize=12;dashed=1;html=1;edgeStyle=orthogonalEdgeStyle;" edge="1" parent="1" source="5tQaKlca7w6gPAvnw7rY-4" target="Ko4EwIO6dEaTH60689tN-1">
          <mxGeometry width="160" relative="1" as="geometry">
            <mxPoint x="700" y="350" as="sourcePoint" />
            <mxPoint x="860" y="350" as="targetPoint" />
          </mxGeometry>
        </mxCell>
        <mxCell id="di18Ko3ceT_mm56ivmTr-4" value="UserDbContext" style="swimlane;fontStyle=1;align=center;verticalAlign=top;childLayout=stackLayout;horizontal=1;startSize=26;horizontalStack=0;resizeParent=1;resizeParentMax=0;resizeLast=0;collapsible=1;marginBottom=0;" vertex="1" parent="1">
          <mxGeometry x="890" y="82" width="160" height="114" as="geometry" />
        </mxCell>
        <mxCell id="di18Ko3ceT_mm56ivmTr-5" value="+ UserContext&#xa;+ ClientContext&#xa;+ AdminContext" style="text;strokeColor=none;fillColor=none;align=left;verticalAlign=top;spacingLeft=4;spacingRight=4;overflow=hidden;rotatable=0;points=[[0,0.5],[1,0.5]];portConstraint=eastwest;" vertex="1" parent="di18Ko3ceT_mm56ivmTr-4">
          <mxGeometry y="26" width="160" height="54" as="geometry" />
        </mxCell>
        <mxCell id="di18Ko3ceT_mm56ivmTr-6" value="" style="line;strokeWidth=1;fillColor=none;align=left;verticalAlign=middle;spacingTop=-1;spacingLeft=3;spacingRight=3;rotatable=0;labelPosition=right;points=[];portConstraint=eastwest;" vertex="1" parent="di18Ko3ceT_mm56ivmTr-4">
          <mxGeometry y="80" width="160" height="8" as="geometry" />
        </mxCell>
        <mxCell id="di18Ko3ceT_mm56ivmTr-7" value="+ method(type): type" style="text;strokeColor=none;fillColor=none;align=left;verticalAlign=top;spacingLeft=4;spacingRight=4;overflow=hidden;rotatable=0;points=[[0,0.5],[1,0.5]];portConstraint=eastwest;" vertex="1" parent="di18Ko3ceT_mm56ivmTr-4">
          <mxGeometry y="88" width="160" height="26" as="geometry" />
        </mxCell>
        <mxCell id="di18Ko3ceT_mm56ivmTr-8" value="Use" style="endArrow=open;endSize=12;dashed=1;html=1;edgeStyle=orthogonalEdgeStyle;" edge="1" parent="1" source="di18Ko3ceT_mm56ivmTr-4" target="Ko4EwIO6dEaTH60689tN-9">
          <mxGeometry x="0.027" y="9" width="160" relative="1" as="geometry">
            <mxPoint x="1140" y="120" as="sourcePoint" />
            <mxPoint x="1300" y="120" as="targetPoint" />
            <mxPoint as="offset" />
          </mxGeometry>
        </mxCell>
        <mxCell id="di18Ko3ceT_mm56ivmTr-9" value="Use" style="endArrow=open;endSize=12;dashed=1;html=1;edgeStyle=orthogonalEdgeStyle;" edge="1" parent="1" source="di18Ko3ceT_mm56ivmTr-4" target="Ko4EwIO6dEaTH60689tN-13">
          <mxGeometry width="160" relative="1" as="geometry">
            <mxPoint x="1090" y="70" as="sourcePoint" />
            <mxPoint x="1250" y="70" as="targetPoint" />
            <Array as="points">
              <mxPoint x="1130" y="139" />
            </Array>
          </mxGeometry>
        </mxCell>
        <mxCell id="di18Ko3ceT_mm56ivmTr-10" value="Use" style="endArrow=open;endSize=12;dashed=1;html=1;edgeStyle=orthogonalEdgeStyle;" edge="1" parent="1" source="di18Ko3ceT_mm56ivmTr-4" target="Ko4EwIO6dEaTH60689tN-17">
          <mxGeometry width="160" relative="1" as="geometry">
            <mxPoint x="1220" y="70" as="sourcePoint" />
            <mxPoint x="1380" y="70" as="targetPoint" />
            <Array as="points">
              <mxPoint x="1460" y="139" />
            </Array>
          </mxGeometry>
        </mxCell>
        <mxCell id="di18Ko3ceT_mm56ivmTr-11" value="Use" style="endArrow=open;endSize=12;dashed=1;html=1;edgeStyle=orthogonalEdgeStyle;" edge="1" parent="1" source="LZfnMfzsvYv3BuPkElLu-1" target="di18Ko3ceT_mm56ivmTr-4">
          <mxGeometry width="160" relative="1" as="geometry">
            <mxPoint x="920" y="520" as="sourcePoint" />
            <mxPoint x="1080" y="520" as="targetPoint" />
          </mxGeometry>
        </mxCell>
        <mxCell id="di18Ko3ceT_mm56ivmTr-12" value="Use" style="endArrow=open;endSize=12;dashed=1;html=1;edgeStyle=orthogonalEdgeStyle;" edge="1" parent="1" source="LZfnMfzsvYv3BuPkElLu-1" target="Ko4EwIO6dEaTH60689tN-13">
          <mxGeometry width="160" relative="1" as="geometry">
            <mxPoint x="1000" y="570" as="sourcePoint" />
            <mxPoint x="1160" y="570" as="targetPoint" />
          </mxGeometry>
        </mxCell>
      </root>
    </mxGraphModel>
  </diagram>
</mxfile>
